<?xml version="1.0" encoding="UTF-8" standalone="no"?>
<svg
   xmlns:dc="http://purl.org/dc/elements/1.1/"
   xmlns:cc="http://creativecommons.org/ns#"
   xmlns:rdf="http://www.w3.org/1999/02/22-rdf-syntax-ns#"
   xmlns:svg="http://www.w3.org/2000/svg"
   xmlns="http://www.w3.org/2000/svg"
   version="1.0"
   width="260"
   height="334"
   style="stroke:#000000;stroke-width:5;stroke-linecap:round;stroke-linejoin:round"
   id="svg1396">
  <metadata
     id="metadata601">
    <rdf:RDF>
      <cc:Work
         rdf:about="">
        <dc:format>image/svg+xml</dc:format>
        <dc:type
           rdf:resource="http://purl.org/dc/dcmitype/StillImage" />
        <dc:title></dc:title>
      </cc:Work>
    </rdf:RDF>
  </metadata>
  <defs
     id="defs599" />
  <g
     style="fill:none;stroke-width:8"
     id="basket">
    <path
       d="M 7.246,167.2 H 132.62406 Z"
       style="stroke-width:14.15241528"
       id="path2280" />
    <path
       d="m 129.27248,168 -15.58795,158.22476 h -73.355 L 11.158957,168"
       style="stroke-width:9"
       id="path1405" />
    <path
       d="M 16,196.2 H 126.5 L 124,222.1 H 21 l 5,25.9 h 95 l -2,25.9 H 31 l 4,25.9 h 81 M 95.351405,326 101.4095,167 H 70.878469 L 75.95914,326 H 59.872546 L 40.183769,167"
       id="path7527" />
  </g>
  <path
     d="m 28.59447,138.10152 c 27.43116,-13.71559 27.23559,-35.53411 29.42615,-34.66301 26.0271,10.34989 50.74764,13.46621 66.70758,9.97496 -46.36173,35.36343 -22.77093,36.97863 -29.17678,34.66301 -19.68877,-7.11719 -48.25389,14.21432 -66.95695,-9.97496 m 48.873582,-28.40409 c 25.287058,0.0281 26.006788,-8.03126 30.676778,-10.00455 0,0 2.62944,10.73043 8.97747,14.96245"
     style="fill:#ffffff;stroke-width:6"
     id="waste" />
  <path
     d="m 59.271339,64.468786 160.098201,0.45597 c 13.50773,15.5814 36.13634,68.418374 37.84437,80.590624 l -79.73923,3.99 C 175.23031,123.32108 162.76161,98.882416 161.016,95.141806 Z m 117.564911,90.500564 -27.23111,175.09096 62.5861,-115.1903 27.57231,115.64626 16.65471,-173.10848 z"
     id="body" />
  <circle
     cx="187.13663"
     cy="30.707014"
     r="28.1"
     id="head" />
</svg>
